<?xml version="1.0" standalone="no"?>
<!DOCTYPE svg PUBLIC "-//W3C//DTD SVG 20010904//EN"
 "http://www.w3.org/TR/2001/REC-SVG-20010904/DTD/svg10.dtd">
<svg version="1.0" xmlns="http://www.w3.org/2000/svg"
 width="133.000000pt" height="133.000000pt" viewBox="0 0 133.000000 133.000000"
 preserveAspectRatio="xMidYMid meet">
<metadata>
Created by potrace 1.14, written by Peter Selinger 2001-2017
</metadata>
<g transform="translate(0.000000,133.000000) scale(0.100000,-0.100000)"
fill="#000000" stroke="none">
<path d="M252 1284 c-12 -8 -22 -12 -22 -9 0 3 -16 -6 -35 -21 -19 -14 -35
-23 -35 -20 0 4 -6 2 -12 -4 -7 -6 -42 -28 -78 -48 -59 -34 -65 -40 -66 -72
-1 -19 3 -38 10 -42 6 -5 7 -8 1 -8 -15 0 -17 -50 -2 -50 7 0 8 -3 2 -8 -16
-11 -18 -44 -3 -53 7 -5 8 -9 3 -9 -15 0 -17 -50 -2 -50 7 0 8 -3 2 -8 -16
-11 -18 -44 -3 -53 7 -5 8 -9 3 -9 -15 0 -17 -50 -2 -50 7 0 8 -3 2 -8 -16
-11 -18 -44 -3 -53 7 -5 8 -9 3 -9 -15 0 -17 -50 -2 -50 7 0 8 -3 2 -8 -16
-11 -18 -44 -3 -53 7 -5 8 -9 3 -9 -15 0 -17 -50 -2 -50 7 0 8 -3 2 -8 -16
-11 -18 -44 -3 -53 7 -5 8 -9 3 -9 -15 0 -17 -50 -2 -50 8 0 8 -3 2 -8 -6 -4
-11 -22 -12 -40 0 -18 2 -30 5 -27 3 3 11 -4 19 -15 8 -11 18 -20 23 -20 4 0
105 -56 224 -125 118 -69 220 -125 226 -125 13 0 85 38 180 97 36 22 80 46 98
54 17 7 32 17 32 21 0 5 4 8 9 8 5 0 45 21 90 47 79 47 81 48 82 88 4 172 4
213 -3 232 -6 17 -2 25 12 33 11 6 28 27 38 47 14 30 25 38 65 48 26 7 70 27
97 46 151 103 166 271 31 341 -44 23 -62 27 -119 24 -41 -2 -86 -11 -115 -24
-66 -29 -212 -146 -225 -179 -17 -46 -34 -137 -31 -158 3 -13 -1 -19 -10 -17
-8 2 -17 -1 -20 -5 -8 -11 -42 -32 -122 -76 l-66 -36 0 248 c0 137 -3 254 -7
259 -3 6 -30 24 -59 40 -120 66 -153 85 -168 98 -13 11 -19 11 -37 -2z m78
-69 c19 -12 57 -34 83 -49 45 -26 47 -29 30 -42 -10 -7 -21 -14 -24 -14 -4 0
-38 -18 -75 -40 -71 -41 -91 -43 -126 -12 -10 8 -18 12 -18 8 0 -4 -12 2 -26
13 -15 12 -31 21 -36 21 -6 0 -21 8 -34 19 -24 19 -21 28 16 45 8 3 44 24 79
45 68 41 74 41 131 6z m-138 -192 c21 -12 41 -23 46 -23 4 0 8 -121 8 -269 0
-239 2 -271 17 -286 9 -9 17 -14 17 -11 0 6 194 -104 200 -114 3 -4 4 -52 3
-107 -1 -121 -1 -121 -11 -108 -4 6 -33 24 -64 40 -32 17 -58 34 -58 39 0 5
-3 6 -7 3 -3 -4 -11 -3 -17 2 -10 8 -34 22 -116 68 -14 8 -54 32 -90 52 l-65
38 -1 364 c0 200 1 369 4 376 4 12 47 -9 134 -64z m292 -164 c1 -127 -1 -234
-4 -239 -3 -4 -32 -22 -65 -41 -33 -18 -62 -36 -65 -40 -4 -5 -35 -17 -59 -23
-3 -1 -5 105 -5 234 -1 225 3 260 29 260 3 0 40 20 82 45 42 24 79 42 81 40 3
-3 5 -109 6 -236z m346 -200 c50 -28 90 -56 90 -61 0 -5 -4 -6 -10 -3 -5 3
-10 3 -10 -2 0 -4 -10 -13 -23 -19 -19 -9 -159 -90 -252 -145 -16 -10 -52 -29
-78 -43 l-49 -25 -36 21 c-118 65 -141 80 -136 91 2 7 30 26 62 42 31 17 59
33 60 38 2 4 7 7 12 7 5 0 43 20 84 45 42 25 81 45 86 45 6 0 10 5 10 11 0 5
5 7 10 4 6 -3 10 -2 10 3 0 8 56 40 73 41 4 1 48 -22 97 -50z m121 -199 l2
-104 -39 -26 c-22 -15 -66 -42 -99 -60 -109 -60 -150 -84 -153 -92 -2 -5 -8
-6 -13 -2 -5 3 -9 0 -9 -6 0 -6 -4 -8 -10 -5 -5 3 -10 1 -10 -4 0 -6 -7 -11
-15 -11 -8 0 -15 -4 -15 -8 0 -4 -15 -14 -33 -23 l-32 -14 -2 108 -1 108 39
24 c21 14 43 25 49 25 5 0 10 5 10 11 0 5 4 8 9 4 5 -3 13 0 16 5 4 6 17 15
28 21 12 5 29 13 37 19 25 17 235 137 237 136 1 -1 3 -48 4 -106z"/>
</g>
</svg>
